/home/minht/3dpredictsim_tutorial/predsim_tutorial/Results/Case_12/GRF.mot
version=1
nRows=25
nColumns=19
inDegrees=yes
endheader 
time	r_ground_force_vx	r_ground_force_vy	r_ground_force_vz	r_ground_force_px	r_ground_force_py	r_ground_force_pz	l_ground_force_vx	l_ground_force_vy	l_ground_force_vz	l_ground_force_px	l_ground_force_py	l_ground_force_pz	r_ground_torque_x	r_ground_torque_y	r_ground_torque_z	l_ground_torque_x	l_ground_torque_y	l_ground_torque_z	
          0.00000000	        -58.66118368	         44.51974672	         20.19044967	         -0.21723030	          0.00000000	          0.14018982	         57.55045111	        598.06791098	          1.37328493	         -0.05919695	          0.00000000	         -0.12944841	          0.00000000	          0.00065126	          0.00000000	          0.00000000	         -8.50226724	          0.00000000	
          0.00785437	        -75.16290909	         63.57443543	         23.36305872	         -0.20947711	          0.00000000	          0.13791918	         58.77875477	        471.42405114	         -3.68656195	         -0.04415761	          0.00000000	         -0.13055146	          0.00000000	          0.00074614	          0.00000000	          0.00000000	         -5.90890779	          0.00000000	
          0.01570875	       -107.33307848	        104.69354741	         24.10484423	         -0.20364427	          0.00000000	          0.13624790	         50.46340548	        329.16233006	         -7.80745960	         -0.01605583	          0.00000000	         -0.13215892	          0.00000000	         -0.00051360	          0.00000000	          0.00000000	         -2.74550162	          0.00000000	
          0.02356312	        -87.89051719	        191.50074159	          2.87479407	         -0.19885236	          0.00000000	          0.13444496	         38.57764450	        241.57870212	        -17.39305433	          0.00348166	          0.00000000	         -0.13035582	          0.00000000	         -0.00400087	          0.00000000	          0.00000000	         -1.48046167	          0.00000000	
          0.03141749	        -71.23988409	        319.22390354	        -18.13141006	         -0.19610783	          0.00000000	          0.13307064	         21.30084686	        177.19827451	        -20.82540448	          0.01636809	          0.00000000	         -0.13042112	          0.00000000	          0.10080489	          0.00000000	          0.00000000	         -0.81461057	          0.00000000	
          0.03927187	        -42.63123468	        472.42095425	        -36.46930887	         -0.19329723	          0.00000000	          0.13036157	          1.70716395	        114.07265173	        -20.28648538	          0.03949814	          0.00000000	         -0.13241770	          0.00000000	          0.57282066	          0.00000000	          0.00000000	         -0.17367126	          0.00000000	
          0.04712624	        -10.80604429	        599.99221021	        -44.06742185	         -0.19047240	          0.00000000	          0.12670424	        -14.27275187	         76.47919747	        -16.71227539	          0.05291154	          0.00000000	         -0.13659883	          0.00000000	          1.75232173	          0.00000000	          0.00000000	         -0.00028096	          0.00000000	
          0.05498061	         26.28854975	        686.66629129	        -50.60569757	         -0.18872237	          0.00000000	          0.12471013	        -25.06544844	         45.58092539	        -13.15068230	          0.05490507	          0.00000000	         -0.13146230	          0.00000000	          3.10707378	          0.00000000	          0.00000000	          0.06468184	          0.00000000	
          0.06283499	         60.38698369	        762.10159174	        -57.37891047	         -0.18771397	          0.00000000	          0.12356551	          0.00000000	          0.00000000	          0.00000000	          0.00000000	          0.00000000	          0.00000000	          0.00000000	          4.38969079	          0.00000000	          0.00000000	          0.00000000	          0.00000000	
          0.07068936	         87.55781496	        825.19209907	        -62.41893492	         -0.18716605	          0.00000000	          0.12271837	          0.00000000	          0.00000000	          0.00000000	          0.00000000	          0.00000000	          0.00000000	          0.00000000	          5.42936398	          0.00000000	          0.00000000	          0.00000000	          0.00000000	
          0.07854373	        107.63251301	        869.88635980	        -65.10719806	         -0.18692419	          0.00000000	          0.12198936	          0.00000000	          0.00000000	          0.00000000	          0.00000000	          0.00000000	          0.00000000	          0.00000000	          6.06101832	          0.00000000	          0.00000000	          0.00000000	          0.00000000	
          0.08639811	        121.52479067	        898.93682090	        -66.04658756	         -0.18689426	          0.00000000	          0.12131141	          0.00000000	          0.00000000	          0.00000000	          0.00000000	          0.00000000	          0.00000000	          0.00000000	          6.29826658	          0.00000000	          0.00000000	          0.00000000	          0.00000000	
          0.09425248	        130.41594892	        916.19155474	        -66.05736182	         -0.18701639	          0.00000000	          0.12066183	          0.00000000	          0.00000000	          0.00000000	          0.00000000	          0.00000000	          0.00000000	          0.00000000	          6.21814461	          0.00000000	          0.00000000	          0.00000000	          0.00000000	
          0.10210685	        134.55651505	        923.76591299	        -65.84427887	         -0.18726338	          0.00000000	          0.12002632	          0.00000000	          0.00000000	          0.00000000	          0.00000000	          0.00000000	          0.00000000	          0.00000000	          5.84885004	          0.00000000	          0.00000000	          0.00000000	          0.00000000	
          0.10996123	        135.43543606	        923.35471906	        -65.65573084	         -0.18759339	          0.00000000	          0.11940387	          0.00000000	          0.00000000	          0.00000000	          0.00000000	          0.00000000	          0.00000000	          0.00000000	          5.26441828	          0.00000000	          0.00000000	          0.00000000	          0.00000000	
          0.11781560	        134.39509579	        917.93471007	        -65.52502310	         -0.18797770	          0.00000000	          0.11879911	          0.00000000	          0.00000000	          0.00000000	          0.00000000	          0.00000000	          0.00000000	          0.00000000	          4.55431203	          0.00000000	          0.00000000	          0.00000000	          0.00000000	
          0.12566997	        132.17066759	        909.15700468	        -65.48850168	         -0.18840262	          0.00000000	          0.11821285	          0.00000000	          0.00000000	          0.00000000	          0.00000000	          0.00000000	          0.00000000	          0.00000000	          3.75754247	          0.00000000	          0.00000000	          0.00000000	          0.00000000	
          0.13352435	        129.25824254	        898.39195388	        -65.54888549	         -0.18885898	          0.00000000	          0.11764156	          0.00000000	          0.00000000	          0.00000000	          0.00000000	          0.00000000	          0.00000000	          0.00000000	          2.90116729	          0.00000000	          0.00000000	          0.00000000	          0.00000000	
          0.14137872	        125.98385065	        886.80386619	        -65.74467575	         -0.18933889	          0.00000000	          0.11707865	          0.00000000	          0.00000000	          0.00000000	          0.00000000	          0.00000000	          0.00000000	          0.00000000	          2.01806339	          0.00000000	          0.00000000	          0.00000000	          0.00000000	
          0.14923309	        122.34935532	        874.63872128	        -65.79972844	         -0.18984113	          0.00000000	          0.11651856	          0.00000000	          0.00000000	          0.00000000	          0.00000000	          0.00000000	          0.00000000	          0.00000000	          1.10984596	          0.00000000	          0.00000000	          0.00000000	          0.00000000	
          0.15708747	        118.40919966	        861.91693920	        -65.68919770	         -0.19036776	          0.00000000	          0.11595483	          0.00000000	          0.00000000	          0.00000000	          0.00000000	          0.00000000	          0.00000000	          0.00000000	          0.16495014	          0.00000000	          0.00000000	          0.00000000	          0.00000000	
          0.16494184	        114.45019555	        847.37543018	        -65.67403364	         -0.19090269	          0.00000000	          0.11535164	          0.00000000	          0.00000000	          0.00000000	          0.00000000	          0.00000000	          0.00000000	          0.00000000	         -0.82895711	          0.00000000	          0.00000000	          0.00000000	          0.00000000	
          0.17279621	        110.26202763	        830.47695456	        -65.34804342	         -0.19143335	          0.00000000	          0.11467031	          0.00000000	          0.00000000	          0.00000000	          0.00000000	          0.00000000	          0.00000000	          0.00000000	         -1.88571823	          0.00000000	          0.00000000	          0.00000000	          0.00000000	
          0.18065059	        105.50169640	        812.60874864	        -64.28972998	         -0.19196429	          0.00000000	          0.11390313	          0.00000000	          0.00000000	          0.00000000	          0.00000000	          0.00000000	          0.00000000	          0.00000000	         -2.99599439	          0.00000000	          0.00000000	          0.00000000	          0.00000000	
          0.18850496	        100.24128730	        794.31833956	        -62.51013489	         -0.19249120	          0.00000000	          0.11304093	          0.00000000	          0.00000000	          0.00000000	          0.00000000	          0.00000000	          0.00000000	          0.00000000	         -4.13253912	          0.00000000	          0.00000000	          0.00000000	          0.00000000	
